<svg width="47" height="46" viewBox="0 0 47 46" fill="none" xmlns="http://www.w3.org/2000/svg">
<circle cx="23.5156" cy="23" r="23" fill="#0A0A0A"/>
<path d="M34.436 23.8846C34.2709 22.1167 33.9991 21.7724 33.8964 21.6429C33.6603 21.3436 33.2826 21.1481 32.8829 20.9429C32.8603 20.9315 32.8408 20.9152 32.8259 20.8954C32.811 20.8755 32.8011 20.8527 32.7971 20.8286C32.793 20.8045 32.7949 20.7798 32.8026 20.7565C32.8102 20.7332 32.8234 20.712 32.8412 20.6944C32.9152 20.6227 32.9721 20.5366 33.0079 20.442C33.0438 20.3474 33.0577 20.2465 33.0488 20.1462C33.0316 19.9684 32.945 19.8033 32.8062 19.6836C32.6673 19.5639 32.4864 19.4984 32.2994 19.5H31.5842C31.5536 19.5002 31.523 19.5021 31.4926 19.5057C31.4717 19.497 31.4501 19.4902 31.4279 19.4851C31.0044 18.6307 30.4245 17.4608 29.2226 16.8899C27.4398 16.0437 24.1559 16 23.5141 16C22.8723 16 19.5884 16.0437 17.8079 16.8886C16.606 17.4595 16.0261 18.6294 15.6026 19.4838L15.5989 19.4908C15.5778 19.4936 15.557 19.4986 15.537 19.5057C15.5066 19.5021 15.476 19.5002 15.4453 19.5H14.7289C14.5418 19.4984 14.3609 19.5639 14.2221 19.6836C14.0832 19.8033 13.9966 19.9684 13.9794 20.1462C13.9712 20.2462 13.9858 20.3467 14.0221 20.4409C14.0584 20.5351 14.1156 20.6206 14.1898 20.6918C14.2075 20.7093 14.2207 20.7306 14.2284 20.7539C14.236 20.7772 14.2379 20.8018 14.2339 20.8259C14.2298 20.85 14.22 20.8729 14.2051 20.8927C14.1902 20.9126 14.1707 20.9288 14.1481 20.9402C13.7483 21.1467 13.3688 21.3423 13.1345 21.6402C13.0319 21.7715 12.7605 22.1141 12.595 23.882C12.5033 24.8769 12.4896 25.9067 12.5615 26.57C12.7123 27.9481 12.9952 28.7811 13.0071 28.8157C13.0505 28.9415 13.1304 29.0529 13.2375 29.1371C13.3446 29.2213 13.4745 29.2747 13.6122 29.2912V29.3C13.6122 29.4857 13.6895 29.6637 13.827 29.795C13.9646 29.9263 14.1511 30 14.3456 30H16.9127C17.1072 30 17.2938 29.9263 17.4313 29.795C17.5688 29.6637 17.6461 29.4857 17.6461 29.3C18.0408 29.3 18.3154 29.2326 18.6065 29.1609C19.0267 29.0528 19.4563 28.9809 19.89 28.9461C21.2886 28.8188 22.6794 28.775 23.5141 28.775C24.3319 28.775 25.7841 28.8188 27.185 28.9461C27.6204 28.981 28.0517 29.0532 28.4735 29.1617C28.7523 29.23 29.0167 29.293 29.383 29.2996C29.383 29.4852 29.4603 29.6633 29.5978 29.7945C29.7354 29.9258 29.9219 29.9996 30.1165 29.9996H32.6835C32.878 29.9996 33.0646 29.9258 33.2021 29.7945C33.3397 29.6633 33.4169 29.4852 33.4169 29.2996V29.2943C33.5549 29.2781 33.6852 29.2248 33.7927 29.1406C33.9002 29.0564 33.9803 28.9448 34.0239 28.8187C34.0358 28.7842 34.3186 27.9512 34.4694 26.5731C34.5414 25.9094 34.5286 24.8813 34.436 23.8846ZM16.9283 20.0823C17.295 19.3386 17.7144 18.4968 18.4612 18.142C19.5402 17.6293 21.7768 17.3982 23.5141 17.3982C25.2514 17.3982 27.488 17.6275 28.5671 18.142C29.3138 18.4968 29.7314 19.339 30.0999 20.0823L30.1458 20.1772C30.1726 20.2313 30.1844 20.291 30.1802 20.3507C30.176 20.4103 30.1558 20.4679 30.1216 20.518C30.0874 20.5681 30.0403 20.6091 29.9848 20.6369C29.9294 20.6647 29.8674 20.6784 29.8047 20.6769C28.2815 20.6375 25.0727 20.5115 23.5141 20.5115C21.9555 20.5115 18.7467 20.6406 17.2212 20.6799C17.1585 20.6815 17.0965 20.6677 17.0411 20.6399C16.9856 20.6121 16.9385 20.5712 16.9043 20.5211C16.8701 20.471 16.8499 20.4134 16.8457 20.3537C16.8415 20.2941 16.8533 20.2344 16.8801 20.1803C16.8962 20.1479 16.9131 20.1151 16.9283 20.0823ZM17.4751 23.5661C16.6866 23.6567 15.893 23.7014 15.0988 23.7C14.6129 23.7 14.1118 23.5687 14.0188 23.1557C13.9551 22.8779 13.962 22.7217 13.9963 22.5647C14.0252 22.4313 14.071 22.3341 14.3002 22.3C14.8962 22.2125 15.2294 22.3223 16.2049 22.5966C16.8517 22.7782 17.3184 23.0201 17.5842 23.2117C17.7176 23.3062 17.6466 23.553 17.4751 23.5661ZM27.6232 27.1536C27.02 27.2192 25.8134 27.1952 23.5279 27.1952C21.2423 27.1952 20.0362 27.2192 19.433 27.1536C18.8105 27.0876 18.017 26.5258 18.5588 26.0253C18.9196 25.6954 19.7612 25.4487 20.882 25.31C22.0028 25.1713 22.4772 25.1 23.5233 25.1C24.5693 25.1 24.9957 25.1438 26.1646 25.3104C27.3335 25.4771 28.2168 25.7269 28.4878 26.0258C28.9819 26.5612 28.2453 27.0841 27.6232 27.1562V27.1536ZM33.0094 23.1553C32.9177 23.5701 32.4135 23.6996 31.9294 23.6996C31.12 23.6997 30.3112 23.655 29.5072 23.5657C29.367 23.553 29.3019 23.3181 29.444 23.2113C29.7057 23.0149 30.1774 22.7778 30.8233 22.5962C31.7988 22.3219 32.3612 22.2121 32.8444 22.3035C32.9622 22.3258 33.0245 22.4466 33.0319 22.5223C33.0642 22.733 33.0566 22.9476 33.0094 23.1557V23.1553Z" fill="white"/>
</svg>
