<svg width="15" height="18" viewBox="0 0 15 18" fill="none" xmlns="http://www.w3.org/2000/svg">
<path d="M7.51562 8.35714C9.91559 8.35714 11.8612 6.48633 11.8612 4.17857C11.8612 1.87081 9.91559 0 7.51562 0C5.11566 0 3.1701 1.87081 3.1701 4.17857C3.1701 6.48633 5.11566 8.35714 7.51562 8.35714Z" fill="white"/>
<path d="M0.515984 15.0879C0.509299 15.2807 0.596209 15.4736 0.749974 15.6021C2.64863 17.145 5.0487 18 7.51562 18C9.98255 18 12.3826 17.145 14.2813 15.6021C14.435 15.4736 14.522 15.2807 14.5153 15.0879C14.415 12.3943 12.6634 10.0221 10.0561 9.045C9.90377 8.98826 9.73534 8.98598 9.58142 9.03857C8.27108 9.495 6.76017 9.495 5.44983 9.03857C5.29591 8.98598 5.12748 8.98826 4.97516 9.045C2.36785 10.0221 0.616266 12.3943 0.515984 15.0879Z" fill="white"/>
</svg>
