<svg width="23" height="14" viewBox="0 0 23 14" fill="none" xmlns="http://www.w3.org/2000/svg">
<path d="M22.436 7.88462C22.2709 6.11669 21.9991 5.77237 21.8964 5.64287C21.6603 5.34362 21.2826 5.14806 20.8829 4.94287C20.8603 4.93147 20.8408 4.9152 20.8259 4.89536C20.811 4.87552 20.8011 4.85265 20.7971 4.82856C20.793 4.80446 20.7949 4.77979 20.8026 4.75651C20.8102 4.73322 20.8234 4.71195 20.8412 4.69438C20.9152 4.62273 20.9721 4.53663 21.0079 4.442C21.0438 4.34737 21.0577 4.24645 21.0488 4.14619C21.0316 3.96839 20.945 3.80327 20.8062 3.68358C20.6673 3.56389 20.4864 3.49836 20.2994 3.5H19.5842C19.5536 3.50017 19.523 3.50207 19.4926 3.50569C19.4717 3.49705 19.4501 3.49016 19.4279 3.48513C19.0044 2.63069 18.4245 1.46081 17.2226 0.889875C15.4398 0.0437498 12.1559 0 11.5141 0C10.8723 0 7.58836 0.0437499 5.80793 0.888562C4.60601 1.4595 4.02613 2.62938 3.60257 3.48381L3.5989 3.49081C3.57777 3.49365 3.55703 3.49864 3.53702 3.50569C3.5066 3.50207 3.47599 3.50017 3.44534 3.5H2.72885C2.54178 3.49836 2.36089 3.56389 2.22206 3.68358C2.08323 3.80327 1.99661 3.96839 1.97937 4.14619C1.97123 4.24622 1.98581 4.34675 2.02212 4.44091C2.05844 4.53506 2.11562 4.62063 2.18978 4.69175C2.20751 4.70933 2.22073 4.7306 2.22838 4.75388C2.23604 4.77717 2.23791 4.80183 2.23387 4.82593C2.22982 4.85003 2.21997 4.8729 2.20508 4.89274C2.19018 4.91258 2.17067 4.92884 2.14806 4.94025C1.74834 5.14675 1.36878 5.34231 1.13454 5.64025C1.03186 5.7715 0.760482 6.11406 0.594999 7.882C0.503319 8.87687 0.489567 9.90675 0.561536 10.57C0.71235 11.9481 0.995183 12.7811 1.0071 12.8157C1.0505 12.9415 1.13039 13.0529 1.2375 13.1371C1.3446 13.2213 1.47453 13.2747 1.61219 13.2912V13.3C1.61219 13.4857 1.68946 13.6637 1.82701 13.795C1.96456 13.9263 2.15111 14 2.34563 14H4.91268C5.1072 14 5.29375 13.9263 5.4313 13.795C5.56884 13.6637 5.64612 13.4857 5.64612 13.3C6.0408 13.3 6.31538 13.2326 6.60647 13.1609C7.02672 13.0528 7.45628 12.9809 7.88999 12.9461C9.28857 12.8188 10.6794 12.775 11.5141 12.775C12.3319 12.775 13.7841 12.8188 15.185 12.9461C15.6204 12.981 16.0517 13.0532 16.4735 13.1617C16.7523 13.23 17.0167 13.293 17.383 13.2996C17.383 13.4852 17.4603 13.6633 17.5978 13.7945C17.7354 13.9258 17.9219 13.9996 18.1165 13.9996H20.6835C20.878 13.9996 21.0646 13.9258 21.2021 13.7945C21.3397 13.6633 21.4169 13.4852 21.4169 13.2996V13.2943C21.5549 13.2781 21.6852 13.2248 21.7927 13.1406C21.9002 13.0564 21.9803 12.9448 22.0239 12.8187C22.0358 12.7842 22.3186 11.9512 22.4694 10.5731C22.5414 9.90938 22.5286 8.88125 22.436 7.88462ZM4.92826 4.08231C5.29498 3.33856 5.71442 2.49681 6.46115 2.142C7.54023 1.62925 9.77677 1.39825 11.5141 1.39825C13.2514 1.39825 15.488 1.6275 16.5671 2.142C17.3138 2.49681 17.7314 3.339 18.0999 4.08231L18.1458 4.17725C18.1726 4.2313 18.1844 4.291 18.1802 4.35066C18.176 4.41032 18.1558 4.46795 18.1216 4.51805C18.0874 4.56815 18.0403 4.60905 17.9848 4.63686C17.9294 4.66466 17.8674 4.67844 17.8047 4.67687C16.2815 4.6375 13.0727 4.5115 11.5141 4.5115C9.95554 4.5115 6.74674 4.64056 5.22118 4.67994C5.15855 4.6815 5.09654 4.66772 5.04107 4.63992C4.98561 4.61211 4.93853 4.57121 4.90433 4.52111C4.87013 4.47101 4.84995 4.41338 4.84571 4.35372C4.84147 4.29406 4.85332 4.23436 4.88013 4.18031C4.89617 4.14794 4.91313 4.11512 4.92826 4.08231ZM5.47513 7.56612C4.68659 7.6567 3.89301 7.70141 3.09878 7.7C2.61288 7.7 2.11185 7.56875 2.01879 7.15575C1.95507 6.87794 1.96195 6.72175 1.99633 6.56469C2.02521 6.43125 2.07105 6.33413 2.30025 6.3C2.89617 6.2125 3.22943 6.32231 4.20491 6.59662C4.85171 6.77819 5.31836 7.02012 5.58423 7.21175C5.71763 7.30625 5.64658 7.553 5.47513 7.56612ZM15.6232 11.1536C15.02 11.2192 13.8134 11.1952 11.5279 11.1952C9.24227 11.1952 8.03622 11.2192 7.43296 11.1536C6.81045 11.0876 6.01696 10.5258 6.55879 10.0253C6.91955 9.69544 7.76118 9.44869 8.88197 9.31C10.0028 9.17131 10.4772 9.1 11.5233 9.1C12.5693 9.1 12.9957 9.14375 14.1646 9.31044C15.3335 9.47713 16.2168 9.72694 16.4878 10.0258C16.9819 10.5612 16.2453 11.0841 15.6232 11.1562V11.1536ZM21.0094 7.15531C20.9177 7.57006 20.4135 7.69956 19.9294 7.69956C19.12 7.69974 18.3112 7.65504 17.5072 7.56569C17.367 7.553 17.3019 7.31806 17.444 7.21131C17.7057 7.01487 18.1774 6.77775 18.8233 6.59619C19.7988 6.32188 20.3612 6.21206 20.8444 6.3035C20.9622 6.32581 21.0245 6.44656 21.0319 6.52225C21.0642 6.733 21.0566 6.94757 21.0094 7.15575V7.15531Z" fill="white"/>
</svg>
