<svg width="25" height="18" viewBox="0 0 25 18" fill="none" xmlns="http://www.w3.org/2000/svg">
<path d="M24.9215 8.09985L23.7117 5.46442C23.6481 5.32593 23.5441 5.20821 23.4123 5.12556C23.2804 5.04291 23.1265 4.99891 22.9691 4.99891H20.9641C20.7489 4.99891 20.5424 5.08118 20.3901 5.22762C20.2379 5.37407 20.1524 5.57269 20.1524 5.77979V7.01078H19.5287V5.99792C19.5287 5.79081 19.4432 5.59219 19.291 5.44575C19.1387 5.29931 18.9323 5.21703 18.717 5.21703H16.5557V3.08626C16.5557 2.87916 16.4702 2.68054 16.318 2.53409C16.1657 2.38765 15.9592 2.30538 15.744 2.30538H11.7506V1.56177H15.744C15.9592 1.56177 16.1657 1.4795 16.318 1.33305C16.4702 1.18661 16.5557 0.987987 16.5557 0.780884C16.5557 0.573781 16.4702 0.37516 16.318 0.228716C16.1657 0.0822714 15.9592 4.36438e-09 15.744 0H6.13395C5.91865 4.36438e-09 5.71218 0.0822714 5.55994 0.228716C5.40771 0.37516 5.32218 0.573781 5.32218 0.780884C5.32218 0.987987 5.40771 1.18661 5.55994 1.33305C5.71218 1.4795 5.91865 1.56177 6.13395 1.56177H10.1273V2.30538H6.13395C5.91865 2.30538 5.71218 2.38765 5.55994 2.53409C5.40771 2.68054 5.32218 2.87916 5.32218 3.08626V3.73533H3.54128C3.32598 3.73533 3.11951 3.8176 2.96727 3.96405C2.81504 4.11049 2.72951 4.30911 2.72951 4.51622V8.70665H1.61425V4.51622C1.61425 4.30911 1.52873 4.11049 1.37649 3.96405C1.22426 3.8176 1.01778 3.73533 0.802488 3.73533C0.587195 3.73533 0.380719 3.8176 0.228483 3.96405C0.0762477 4.11049 -0.00927734 4.30911 -0.00927734 4.51622V14.4591C-0.00927734 14.8904 0.354177 15.2399 0.802488 15.2399C1.2508 15.2399 1.61425 14.8904 1.61425 14.4591V10.2684H2.72951V14.4591C2.72951 14.6662 2.81504 14.8648 2.96727 15.0112C3.11951 15.1577 3.32598 15.2399 3.54128 15.2399H6.69515L9.89978 17.8181C10.0458 17.9356 10.2302 18 10.4206 18H18.7171C18.9324 18 19.1388 17.9177 19.2911 17.7713C19.4433 17.6248 19.5288 17.4262 19.5288 17.2191V15.0904H20.1525V16.3214C20.1525 16.5285 20.238 16.7271 20.3903 16.8736C20.5425 17.02 20.749 17.1023 20.9643 17.1023H22.9692C23.1266 17.1023 23.2805 17.0583 23.4124 16.9756C23.5442 16.893 23.6483 16.7753 23.7118 16.6368L24.9216 14.0014C24.9672 13.902 24.9907 13.7946 24.9907 13.686V8.41522C24.9907 8.30661 24.9671 8.19919 24.9215 8.09985ZM23.3672 13.5214L22.4404 15.5406H21.776V14.3096C21.776 14.1025 21.6905 13.9039 21.5383 13.7575C21.386 13.611 21.1796 13.5288 20.9643 13.5288H18.7171C18.5018 13.5288 18.2953 13.611 18.1431 13.7575C17.9908 13.9039 17.9053 14.1025 17.9053 14.3096V16.4383H10.7152L7.51059 13.8602C7.36454 13.7426 7.18018 13.6783 6.98977 13.6783H4.35304V5.2971H6.13395C6.24055 5.2971 6.34611 5.2769 6.4446 5.23766C6.54309 5.19842 6.63257 5.1409 6.70795 5.06838C6.78333 4.99587 6.84313 4.90979 6.88392 4.81505C6.92472 4.72031 6.94571 4.61876 6.94571 4.51622V3.86715H14.9323V5.99813C14.9323 6.20523 15.0178 6.40385 15.1701 6.55029C15.3223 6.69674 15.5288 6.77901 15.7441 6.77901H17.9053V7.79187C17.9053 7.99897 17.9908 8.19759 18.1431 8.34404C18.2953 8.49048 18.5018 8.57275 18.7171 8.57275H20.9643C21.1796 8.57275 21.386 8.49048 21.5383 8.34404C21.6905 8.19759 21.776 7.99897 21.776 7.79187V6.56078H22.4404L23.3672 8.58004V13.5214Z" fill="#727272"/>
</svg>
