<svg width="22" height="18" viewBox="0 0 22 18" fill="none" xmlns="http://www.w3.org/2000/svg">
<path d="M12.6064 0H3.93479C3.54115 0 3.22202 0.30606 3.22202 0.683576C3.22202 1.06109 3.54115 1.36715 3.93479 1.36715H7.63982C6.85955 1.83594 6.15487 2.41152 5.5481 3.07568H0.70349C0.309852 3.07572 -0.00927734 3.38182 -0.00927734 3.75934C-0.00927734 4.13686 0.309852 4.44292 0.70349 4.44292H4.51697C3.69464 5.7804 3.22198 7.33818 3.22198 9.00002C3.22198 10.9337 3.86131 12.7269 4.94765 14.1955H2.92528C2.53164 14.1955 2.21251 14.5016 2.21251 14.8791C2.21251 15.2566 2.53164 15.5627 2.92528 15.5627H6.19173C6.6372 15.9635 7.12217 16.3219 7.63982 16.6328H0.777009C0.383372 16.6328 0.0642423 16.9389 0.0642423 17.3164C0.0642423 17.6939 0.383372 18 0.777009 18H12.6064C17.781 18 21.9907 13.9626 21.9907 8.99998C21.9907 4.03738 17.7809 0 12.6064 0ZM12.6064 16.6329C8.21788 16.6329 4.6476 13.2089 4.6476 9.00006C4.6476 4.79125 8.21788 1.36719 12.6064 1.36719C16.9949 1.36719 20.5651 4.79125 20.5651 9.00002C20.5651 13.2088 16.9949 16.6329 12.6064 16.6329Z" fill="#727272"/>
<path d="M12.6064 3.41653C9.39614 3.41653 6.78441 5.9213 6.78441 9.00007C6.78441 10.8361 7.71335 12.4678 9.14404 13.4861C9.15715 13.4967 9.17017 13.5074 9.18431 13.5172C9.2002 13.5283 9.21649 13.5386 9.23295 13.5483C10.1853 14.1998 11.35 14.5836 12.6064 14.5836C13.8628 14.5836 15.0274 14.1998 15.9798 13.5483C15.9963 13.5386 16.0126 13.5283 16.0285 13.5172C16.0426 13.5074 16.0556 13.4966 16.0687 13.4861C17.4994 12.4678 18.4284 10.8361 18.4284 9.00007C18.4284 5.92134 15.8166 3.41653 12.6064 3.41653ZM13.3192 4.83944C14.7101 5.05789 15.8836 5.90432 16.5113 7.06448L14.6655 7.63968C14.3449 7.19466 13.8718 6.85844 13.3192 6.70056V4.83944H13.3192ZM13.6825 9.00003C13.6825 9.56913 13.1998 10.0321 12.6064 10.0321C12.013 10.0321 11.5302 9.56917 11.5302 9.00003C11.5302 8.43093 12.013 7.96795 12.6064 7.96795C13.1998 7.96795 13.6825 8.43093 13.6825 9.00003ZM11.8936 4.83944V6.70056C11.3409 6.85844 10.8678 7.19466 10.5472 7.63968L8.70146 7.06448C9.32924 5.90432 10.5027 5.05785 11.8936 4.83944ZM9.48113 11.9624C8.69575 11.2004 8.20999 10.1536 8.20999 9.00003C8.20999 8.78401 8.22709 8.57174 8.25992 8.36438L10.1062 8.93974C10.1057 8.95985 10.1046 8.9798 10.1046 9.00003C10.1046 9.54795 10.2975 10.0533 10.6211 10.4576L9.48113 11.9624ZM12.6064 13.2164C11.8974 13.2164 11.2271 13.0544 10.6335 12.7672L11.7737 11.2622C12.0343 11.3507 12.3145 11.3994 12.6064 11.3994C12.8983 11.3994 13.1784 11.3507 13.4391 11.2622L14.5793 12.7672C13.9856 13.0543 13.3154 13.2164 12.6064 13.2164ZM15.7316 11.9624L14.5916 10.4577C14.9152 10.0533 15.1081 9.54799 15.1081 9.00007C15.1081 8.97984 15.1071 8.95989 15.1065 8.93978L16.9528 8.36442C16.9861 8.5748 17.0028 8.78729 17.0027 9.00007C17.0028 10.1536 16.5171 11.2003 15.7316 11.9624Z" fill="#727272"/>
</svg>
